<svg width="77" height="24" viewBox="0 0 77 24" fill="none" xmlns="http://www.w3.org/2000/svg">
<path d="M0.896307 23V1.18182H15.598V4.98508H5.50923V10.1839H14.8416V13.9872H5.50923V19.1967H15.6406V23H0.896307ZM19.2654 23V1.18182H23.8784V19.1967H33.2321V23H19.2654ZM54.688 8.82031H50.0218C49.9366 8.21662 49.7626 7.6804 49.4998 7.21165C49.237 6.73579 48.8997 6.33097 48.4877 5.99716C48.0758 5.66335 47.6 5.40767 47.0602 5.23011C46.5275 5.05256 45.9487 4.96378 45.3237 4.96378C44.1944 4.96378 43.2108 5.24432 42.3727 5.8054C41.5346 6.35937 40.8848 7.16903 40.4231 8.23438C39.9615 9.29261 39.7306 10.5781 39.7306 12.0909C39.7306 13.6463 39.9615 14.9531 40.4231 16.0114C40.8919 17.0696 41.5453 17.8686 42.3833 18.4084C43.2214 18.9482 44.1909 19.218 45.2917 19.218C45.9096 19.218 46.4814 19.1364 47.0069 18.973C47.5396 18.8097 48.0119 18.5717 48.4238 18.2592C48.8358 17.9396 49.1767 17.5526 49.4466 17.098C49.7235 16.6435 49.9153 16.125 50.0218 15.5426L54.688 15.5639C54.5673 16.5653 54.2654 17.5312 53.7825 18.4616C53.3066 19.3849 52.6639 20.2124 51.8542 20.9439C51.0517 21.6683 50.0929 22.2436 48.9778 22.6697C47.8699 23.0888 46.6163 23.2983 45.2172 23.2983C43.2711 23.2983 41.5311 22.858 39.997 21.9773C38.47 21.0966 37.2626 19.8217 36.3748 18.1527C35.4941 16.4837 35.0538 14.4631 35.0538 12.0909C35.0538 9.71165 35.5012 7.6875 36.3961 6.01847C37.291 4.34943 38.5055 3.07812 40.0396 2.20455C41.5737 1.32386 43.2995 0.883522 45.2172 0.883522C46.4814 0.883522 47.6532 1.06108 48.7328 1.41619C49.8194 1.77131 50.7818 2.28977 51.6199 2.97159C52.4579 3.64631 53.1397 4.47372 53.6653 5.45383C54.198 6.43395 54.5389 7.55611 54.688 8.82031ZM57.9959 23V1.18182H62.6088V10.1839H71.9732V1.18182H76.5755V23H71.9732V13.9872H62.6088V23H57.9959Z" fill="black"/>
</svg>
